<svg width="1200" height="630" viewBox="0 0 1200 630" fill="none" xmlns="http://www.w3.org/2000/svg">
  <!-- Background -->
  <rect width="1200" height="630" fill="url(#gradient)"/>
  
  <!-- Logo/Icon -->
  <circle cx="300" cy="315" r="120" fill="white" opacity="0.1"/>
  <circle cx="300" cy="315" r="100" fill="white" opacity="0.2"/>
  <circle cx="300" cy="315" r="80" fill="white" opacity="0.3"/>
  
  <!-- Car icon -->
  <path d="M260 295 L340 295 L350 285 L360 285 L370 295 L380 295 L380 305 L370 305 L360 315 L350 315 L340 305 L260 305 Z" fill="white"/>
  <circle cx="270" cy="315" r="15" fill="white"/>
  <circle cx="330" cy="315" r="15" fill="white"/>
  
  <!-- Text -->
  <text x="600" y="250" font-family="Arial, sans-serif" font-size="72" font-weight="bold" fill="white" text-anchor="middle">DriveIO</text>
  <text x="600" y="320" font-family="Arial, sans-serif" font-size="36" fill="white" text-anchor="middle" opacity="0.9">Trust-first car sharing</text>
  <text x="600" y="360" font-family="Arial, sans-serif" font-size="24" fill="white" text-anchor="middle" opacity="0.8">Book local cars in minutes</text>
  
  <!-- Decorative elements -->
  <circle cx="1000" cy="150" r="40" fill="white" opacity="0.1"/>
  <circle cx="1050" cy="200" r="30" fill="white" opacity="0.1"/>
  <circle cx="1100" cy="150" r="25" fill="white" opacity="0.1"/>
  
  <circle cx="1000" cy="480" r="35" fill="white" opacity="0.1"/>
  <circle cx="1050" cy="430" r="25" fill="white" opacity="0.1"/>
  <circle cx="1100" cy="480" r="30" fill="white" opacity="0.1"/>
  
  <!-- Gradient definition -->
  <defs>
    <linearGradient id="gradient" x1="0%" y1="0%" x2="100%" y2="100%">
      <stop offset="0%" style="stop-color:#00CED1;stop-opacity:1" />
      <stop offset="100%" style="stop-color:#20B2AA;stop-opacity:1" />
    </linearGradient>
  </defs>
</svg>
